<svg xmlns="http://www.w3.org/2000/svg" xmlns:xlink="http://www.w3.org/1999/xlink" contentStyleType="text/css" height="923px" preserveAspectRatio="none" style="width:759px;height:923px;background:#FFFFFF;" version="1.1" viewBox="0 0 759 923" width="759px" zoomAndPan="magnify"><defs/><g><rect fill="#90EE90" height="827.2384" style="stroke:#181818;stroke-width:1.0;" width="10" x="99.6039" y="49.0679"/><rect fill="#ADD8E6" height="598.0023" style="stroke:#181818;stroke-width:1.0;" width="10" x="369.7282" y="153.186"/><rect fill="#ADD8E6" height="103.118" style="stroke:#181818;stroke-width:1.0;" width="10" x="461.328" y="292.01"/><rect fill="#FFA500" height="185.5301" style="stroke:#181818;stroke-width:1.0;" width="10" x="591.1056" y="462.5401"/><line style="stroke:#181818;stroke-width:0.5;stroke-dasharray:5.0,5.0;" x1="104" x2="104" y1="39.0679" y2="885.3063"/><line style="stroke:#181818;stroke-width:0.5;stroke-dasharray:5.0,5.0;" x1="373.7692" x2="373.7692" y1="39.0679" y2="885.3063"/><line style="stroke:#181818;stroke-width:0.5;stroke-dasharray:5.0,5.0;" x1="465.6871" x2="465.6871" y1="39.0679" y2="885.3063"/><line style="stroke:#181818;stroke-width:0.5;stroke-dasharray:5.0,5.0;" x1="595.9688" x2="595.9688" y1="39.0679" y2="885.3063"/><rect fill="#90EE90" height="33.0679" rx="2.5" ry="2.5" style="stroke:#181818;stroke-width:0.5;" width="47.2079" x="81" y="5"/><text fill="#000000" font-family="sans-serif" font-size="14" lengthAdjust="spacing" textLength="33.2079" x="88" y="26.9659">main</text><rect fill="#90EE90" height="33.0679" rx="2.5" ry="2.5" style="stroke:#181818;stroke-width:0.5;" width="47.2079" x="81" y="884.3063"/><text fill="#000000" font-family="sans-serif" font-size="14" lengthAdjust="spacing" textLength="33.2079" x="88" y="906.2722">main</text><rect fill="#ADD8E6" height="33.0679" rx="2.5" ry="2.5" style="stroke:#181818;stroke-width:0.5;" width="57.9178" x="345.7692" y="5"/><text fill="#000000" font-family="sans-serif" font-size="14" lengthAdjust="spacing" textLength="43.9178" x="352.7692" y="26.9659">IN-123</text><rect fill="#ADD8E6" height="33.0679" rx="2.5" ry="2.5" style="stroke:#181818;stroke-width:0.5;" width="57.9178" x="345.7692" y="884.3063"/><text fill="#000000" font-family="sans-serif" font-size="14" lengthAdjust="spacing" textLength="43.9178" x="352.7692" y="906.2722">IN-123</text><rect fill="#ADD8E6" height="33.0679" rx="2.5" ry="2.5" style="stroke:#181818;stroke-width:0.5;" width="65.2818" x="433.6871" y="5"/><text fill="#000000" font-family="sans-serif" font-size="14" lengthAdjust="spacing" textLength="51.2818" x="440.6871" y="26.9659">EDI-453</text><rect fill="#ADD8E6" height="33.0679" rx="2.5" ry="2.5" style="stroke:#181818;stroke-width:0.5;" width="65.2818" x="433.6871" y="884.3063"/><text fill="#000000" font-family="sans-serif" font-size="14" lengthAdjust="spacing" textLength="51.2818" x="440.6871" y="906.2722">EDI-453</text><rect fill="#FFA500" height="33.0679" rx="2.5" ry="2.5" style="stroke:#181818;stroke-width:0.5;" width="134.2735" x="528.9688" y="5"/><text fill="#000000" font-family="sans-serif" font-size="14" lengthAdjust="spacing" textLength="120.2735" x="535.9688" y="26.9659">Emergency-Bugfix</text><rect fill="#FFA500" height="33.0679" rx="2.5" ry="2.5" style="stroke:#181818;stroke-width:0.5;" width="134.2735" x="528.9688" y="884.3063"/><text fill="#000000" font-family="sans-serif" font-size="14" lengthAdjust="spacing" textLength="120.2735" x="535.9688" y="906.2722">Emergency-Bugfix</text><rect fill="#90EE90" height="827.2384" style="stroke:#181818;stroke-width:1.0;" width="10" x="99.6039" y="49.0679"/><rect fill="#ADD8E6" height="598.0023" style="stroke:#181818;stroke-width:1.0;" width="10" x="369.7282" y="153.186"/><rect fill="#ADD8E6" height="103.118" style="stroke:#181818;stroke-width:1.0;" width="10" x="461.328" y="292.01"/><rect fill="#FFA500" height="185.5301" style="stroke:#181818;stroke-width:1.0;" width="10" x="591.1056" y="462.5401"/><line style="stroke:#008000;stroke-width:1.0;" x1="109.6039" x2="151.6039" y1="72.7739" y2="72.7739"/><line style="stroke:#008000;stroke-width:1.0;" x1="151.6039" x2="151.6039" y1="72.7739" y2="85.7739"/><line style="stroke:#008000;stroke-width:1.0;" x1="110.6039" x2="151.6039" y1="85.7739" y2="85.7739"/><polygon fill="#008000" points="120.6039,81.7739,110.6039,85.7739,120.6039,89.7739,116.6039,85.7739" style="stroke:#008000;stroke-width:1.0;"/><text fill="#000000" font-family="sans-serif" font-size="13" lengthAdjust="spacing" textLength="119.5351" x="116.6039" y="66.9649">Create new Release</text><polygon fill="#FEFFDD" points="70,98.7739,137,98.7739,147,110.7739,137,123.7739,70,123.7739,60,110.7739,70,98.7739" style="stroke:#181818;stroke-width:0.5;"/><text fill="#000000" font-family="sans-serif" font-size="13" lengthAdjust="spacing" textLength="63.5571" x="72" y="116.6709">tag: 1.16.0</text><polygon fill="#0000FF" points="357.7282,149.186,367.7282,153.186,357.7282,157.186,361.7282,153.186" style="stroke:#0000FF;stroke-width:1.0;"/><line style="stroke:#0000FF;stroke-width:1.0;" x1="109.6039" x2="363.7282" y1="153.186" y2="153.186"/><text fill="#000000" font-family="sans-serif" font-size="13" lengthAdjust="spacing" textLength="241.1242" x="116.6039" y="147.377">IN-123: Add new Mapping for customer</text><polygon fill="#FEFFDD" points="344,166.186,405,166.186,415,178.186,405,191.186,344,191.186,334,178.186,344,166.186" style="stroke:#181818;stroke-width:0.5;"/><text fill="#000000" font-family="sans-serif" font-size="13" lengthAdjust="spacing" textLength="57.2781" x="346" y="184.083">commit 1</text><polygon fill="#FEFFDD" points="344,201.892,405,201.892,415,213.892,405,226.892,344,226.892,334,213.892,344,201.892" style="stroke:#181818;stroke-width:0.5;"/><text fill="#000000" font-family="sans-serif" font-size="13" lengthAdjust="spacing" textLength="57.2781" x="346" y="219.789">commit 2</text><polygon fill="#FEFFDD" points="344,237.598,405,237.598,415,249.598,405,262.598,344,262.598,334,249.598,344,237.598" style="stroke:#181818;stroke-width:0.5;"/><text fill="#000000" font-family="sans-serif" font-size="13" lengthAdjust="spacing" textLength="57.2781" x="346" y="255.495">commit 3</text><polygon fill="#0000FF" points="449.328,288.01,459.328,292.01,449.328,296.01,453.328,292.01" style="stroke:#0000FF;stroke-width:1.0;"/><line style="stroke:#0000FF;stroke-width:1.0;" x1="109.6039" x2="455.328" y1="292.01" y2="292.01"/><text fill="#000000" font-family="sans-serif" font-size="13" lengthAdjust="spacing" textLength="171.7691" x="116.6039" y="286.201">EDI-453: new internal object</text><polygon fill="#FEFFDD" points="435,305.01,496,305.01,506,317.01,496,330.01,435,330.01,425,317.01,435,305.01" style="stroke:#181818;stroke-width:0.5;"/><text fill="#000000" font-family="sans-serif" font-size="13" lengthAdjust="spacing" textLength="57.2781" x="437" y="322.907">commit 1</text><polygon fill="#FEFFDD" points="435,340.716,496,340.716,506,352.716,496,365.716,435,365.716,425,352.716,435,340.716" style="stroke:#181818;stroke-width:0.5;"/><text fill="#000000" font-family="sans-serif" font-size="13" lengthAdjust="spacing" textLength="57.2781" x="437" y="358.6131">commit 2</text><polygon fill="#0000FF" points="120.6039,391.1281,110.6039,395.1281,120.6039,399.1281,116.6039,395.1281" style="stroke:#0000FF;stroke-width:1.0;"/><line style="stroke:#0000FF;stroke-width:1.0;" x1="114.6039" x2="465.328" y1="395.1281" y2="395.1281"/><text fill="#000000" font-family="sans-serif" font-size="13" lengthAdjust="spacing" textLength="140.9721" x="126.6039" y="389.3191">EDI-453 Merge to main</text><line style="stroke:#A80036;stroke-width:2.0;" x1="457.328" x2="475.328" y1="386.1281" y2="404.1281"/><line style="stroke:#A80036;stroke-width:2.0;" x1="457.328" x2="475.328" y1="404.1281" y2="386.1281"/><polygon fill="#FEFFDD" points="15,408.1281,195,408.1281,205,420.1281,195,433.1281,15,433.1281,5,420.1281,15,408.1281" style="stroke:#181818;stroke-width:0.5;"/><text fill="#000000" font-family="sans-serif" font-size="13" lengthAdjust="spacing" textLength="176.0331" x="17" y="426.0251">tag: 202409091228_ebb5d4b</text><polygon fill="#FFA500" points="579.1056,458.5401,589.1056,462.5401,579.1056,466.5401,583.1056,462.5401" style="stroke:#FFA500;stroke-width:1.0;"/><line style="stroke:#FFA500;stroke-width:1.0;" x1="109.6039" x2="585.1056" y1="462.5401" y2="462.5401"/><text fill="#FF0000" font-family="sans-serif" font-size="13" lengthAdjust="spacing" textLength="106.5741" x="116.6039" y="456.7311">Prod Bugfix for ...</text><polygon fill="#FEFFDD" points="533,475.5401,659,475.5401,669,487.5401,659,500.5401,533,500.5401,523,487.5401,533,475.5401" style="stroke:#181818;stroke-width:0.5;"/><text fill="#000000" font-family="sans-serif" font-size="13" lengthAdjust="spacing" textLength="122.1611" x="535" y="493.4371">Commit fix for issue</text><line style="stroke:#FFA500;stroke-width:1.0;" x1="601.1056" x2="643.1056" y1="529.9521" y2="529.9521"/><line style="stroke:#FFA500;stroke-width:1.0;" x1="643.1056" x2="643.1056" y1="529.9521" y2="542.9521"/><line style="stroke:#FFA500;stroke-width:1.0;" x1="602.1056" x2="643.1056" y1="542.9521" y2="542.9521"/><polygon fill="#FFA500" points="612.1056,538.9521,602.1056,542.9521,612.1056,546.9521,608.1056,542.9521" style="stroke:#FFA500;stroke-width:1.0;"/><text fill="#000000" font-family="sans-serif" font-size="13" lengthAdjust="spacing" textLength="119.5351" x="608.1056" y="524.1431">Create new Release</text><polygon fill="#FEFFDD" points="562,555.9521,629,555.9521,639,567.9521,629,580.9521,562,580.9521,552,567.9521,562,555.9521" style="stroke:#181818;stroke-width:0.5;"/><text fill="#000000" font-family="sans-serif" font-size="13" lengthAdjust="spacing" textLength="63.5571" x="564" y="573.8492">tag: 1.16.1</text><path d="M606,591.6582 L606,618.6582 L752,618.6582 L752,601.6582 L742,591.6582 L606,591.6582 " fill="#90EE90" style="stroke:#181818;stroke-width:0.5;"/><path d="M742,591.6582 L742,601.6582 L752,601.6582 L742,591.6582 " fill="#90EE90" style="stroke:#181818;stroke-width:0.5;"/><text fill="#000000" font-family="sans-serif" font-size="13" lengthAdjust="spacing" textLength="125.6841" x="612" y="610.5552">Release to Test/Prod</text><polygon fill="#FFA500" points="120.6039,644.0702,110.6039,648.0702,120.6039,652.0702,116.6039,648.0702" style="stroke:#FFA500;stroke-width:1.0;"/><line style="stroke:#FFA500;stroke-width:1.0;" x1="114.6039" x2="595.1056" y1="648.0702" y2="648.0702"/><text fill="#FF0000" font-family="sans-serif" font-size="13" lengthAdjust="spacing" textLength="132.5351" x="126.6039" y="642.2612">Merge Bugfix to main</text><line style="stroke:#A80036;stroke-width:2.0;" x1="587.1056" x2="605.1056" y1="639.0702" y2="657.0702"/><line style="stroke:#A80036;stroke-width:2.0;" x1="587.1056" x2="605.1056" y1="657.0702" y2="639.0702"/><polygon fill="#FEFFDD" points="16,661.0702,192,661.0702,202,673.0702,192,686.0702,16,686.0702,6,673.0702,16,661.0702" style="stroke:#181818;stroke-width:0.5;"/><text fill="#000000" font-family="sans-serif" font-size="13" lengthAdjust="spacing" textLength="172.5101" x="18" y="678.9672">tag: 202409091345_ebf3d4b</text><polygon fill="#FEFFDD" points="344,696.7762,405,696.7762,415,708.7762,405,721.7762,344,721.7762,334,708.7762,344,696.7762" style="stroke:#181818;stroke-width:0.5;"/><text fill="#000000" font-family="sans-serif" font-size="13" lengthAdjust="spacing" textLength="57.2781" x="346" y="714.6732">commit 4</text><polygon fill="#0000FF" points="120.6039,747.1882,110.6039,751.1882,120.6039,755.1882,116.6039,751.1882" style="stroke:#0000FF;stroke-width:1.0;"/><line style="stroke:#0000FF;stroke-width:1.0;" x1="114.6039" x2="373.7282" y1="751.1882" y2="751.1882"/><text fill="#000000" font-family="sans-serif" font-size="13" lengthAdjust="spacing" textLength="140.9721" x="126.6039" y="745.3792">EDI-123 Merge to main</text><line style="stroke:#A80036;stroke-width:2.0;" x1="365.7282" x2="383.7282" y1="742.1882" y2="760.1882"/><line style="stroke:#A80036;stroke-width:2.0;" x1="365.7282" x2="383.7282" y1="760.1882" y2="742.1882"/><polygon fill="#FEFFDD" points="16,764.1882,191,764.1882,201,776.1882,191,789.1882,16,789.1882,6,776.1882,16,764.1882" style="stroke:#181818;stroke-width:0.5;"/><text fill="#000000" font-family="sans-serif" font-size="13" lengthAdjust="spacing" textLength="171.6651" x="18" y="782.0853">tag: 202409101228_efaad4b</text><line style="stroke:#008000;stroke-width:1.0;" x1="109.6039" x2="151.6039" y1="818.6003" y2="818.6003"/><line style="stroke:#008000;stroke-width:1.0;" x1="151.6039" x2="151.6039" y1="818.6003" y2="831.6003"/><line style="stroke:#008000;stroke-width:1.0;" x1="110.6039" x2="151.6039" y1="831.6003" y2="831.6003"/><polygon fill="#008000" points="120.6039,827.6003,110.6039,831.6003,120.6039,835.6003,116.6039,831.6003" style="stroke:#008000;stroke-width:1.0;"/><text fill="#000000" font-family="sans-serif" font-size="13" lengthAdjust="spacing" textLength="119.5351" x="116.6039" y="812.7913">Create new Release</text><polygon fill="#FEFFDD" points="70,844.6003,137,844.6003,147,856.6003,137,869.6003,70,869.6003,60,856.6003,70,844.6003" style="stroke:#181818;stroke-width:0.5;"/><text fill="#000000" font-family="sans-serif" font-size="13" lengthAdjust="spacing" textLength="63.5571" x="72" y="862.4973">tag: 1.17.0</text><!--SRC=[ZLF1Zfim4Btp5QFa71O8f5sKHcgtFUmXgwZQMrLL1WRY5cnadBJv-nqR22HPTdkpPvvdtdipRlvmKJF5AjWnfNdAQoRqZcKP5mNudkFKGnXc5UDY1gm1Su1voOkzBXIYk8GzFYtyO6c1JTZ1alA0bwXlNnyNOTJ1ecbOXQf0aPuMNmv5pl-r-1NCfMAYGCTXgUP7fl6Mb0qiVipjxUUc1SJmeD301Vw5xrWYQwZ8NaWAoIEg7gLP4OFl-YkNNEWh6NfKY5J5qAgCuNEMsLfRLjV6jLmgI0-DbaHy87TfnAYThPNAgk8Q_Ab4C9LOtdABADjv6rjYN6XKWfKWaz-OwX6dQ8fJDCKf6dEYsz3Nq3WtXgqP6cXfmqw6ZLRoHC-dZ0wy8FJklNi_23x-mYI9iZ0PfBMZDk9Mz62TIrgCL9PIVLAORNPAPj0kXpNVTTtrdS5iHbA7XHdBCUKUMZdzQzuqP0PbRlg-iZVNjOQbyHsRKiPUaBabCAnct5Sm5ZsJEtT6n7NNpg1hlQstdU3EubxmsUdLkqulmuYSpfVMwOdr2XswlJPZsloh6G-jmxTR-ruxv9mnq_h_F-dq7_r0V_G5]--></g></svg>